<svg width="141" height="33" viewBox="0 0 141 33" fill="none" xmlns="http://www.w3.org/2000/svg"><path d="M14.705 26v-9.096H6.742V26H2.525V5.623h4.217v7.77h7.963v-7.77h4.23V26zm20.888-4.424q-.152 1.341-1.396 2.724-1.935 2.198-5.42 2.198-2.874 0-5.073-1.853-2.198-1.853-2.198-6.027 0-3.912 1.977-6 1.99-2.088 5.157-2.088 1.88 0 3.387.706 1.507.705 2.488 2.225.885 1.341 1.148 3.11.15 1.038.124 2.987H25.474q.083 2.267 1.424 3.18.816.566 1.963.566 1.216 0 1.977-.691.414-.373.732-1.037zm-3.898-4.617q-.098-1.563-.954-2.364-.844-.816-2.101-.816-1.369 0-2.13.857-.745.858-.94 2.323zm6.843-11.336h3.94V26h-3.94zm7.88 0h3.94V26h-3.94zm20.363 7.216q1.908 2.393 1.908 5.654 0 3.318-1.908 5.682-1.907 2.35-5.792 2.35t-5.793-2.35q-1.907-2.364-1.907-5.682 0-3.263 1.907-5.654t5.793-2.392 5.792 2.392m-5.806.94q-1.728 0-2.668 1.23-.927 1.218-.926 3.484 0 2.268.926 3.498.94 1.23 2.668 1.23t2.654-1.23.926-3.498-.926-3.483q-.926-1.23-2.654-1.23m34.27-8.156h3.94V26h-3.94zm6.318 5.308h4.424l3.138 11.115 3.208-11.115h4.23L111.13 26h-4.161zm21.29 0V26h-3.995V10.931zm0-5.433v3.636h-3.995V5.498zm16.728 16.078q-.153 1.341-1.397 2.724-1.935 2.198-5.419 2.198-2.875 0-5.073-1.853t-2.198-6.027q0-3.912 1.976-6 1.991-2.088 5.157-2.088 1.88 0 3.387.706 1.506.705 2.488 2.225.885 1.341 1.148 3.11.152 1.038.124 2.987h-10.313q.083 2.267 1.424 3.18.816.566 1.963.566 1.216 0 1.977-.691.414-.373.733-1.037zm-3.899-4.617q-.096-1.563-.954-2.364-.843-.816-2.101-.816-1.368 0-2.129.857-.747.858-.94 2.323z" fill="#000"/><circle cx="80.129" cy="22.995" r="3.155" fill="#000"/><path d="m86.287 7.43-4.694.148 6.706 18.52h4.694z" fill="#000"/></svg>